<svg width="32" height="32" fill="none" xmlns="http://www.w3.org/2000/svg"><path d="M0 0h32v32H0V0z" fill="url(#paint0_linear_1407_8)"/><path d="M15.888 26.32c-1.707 0-2.997-.48-3.872-1.44-.875-.981-1.312-2.379-1.312-4.192v-1.28h3.328v1.536c0 1.45.608 2.176 1.824 2.176.597 0 1.045-.17 1.344-.512.32-.363.48-.939.48-1.728 0-.939-.213-1.76-.64-2.464-.427-.725-1.216-1.59-2.368-2.592-1.45-1.28-2.464-2.432-3.04-3.456-.576-1.045-.864-2.219-.864-3.52 0-1.77.448-3.136 1.344-4.096.896-.981 2.197-1.472 3.904-1.472 1.685 0 2.955.49 3.808 1.472.875.96 1.312 2.347 1.312 4.16v.928h-3.328V8.688c0-.768-.15-1.323-.448-1.664-.299-.363-.736-.544-1.312-.544-1.173 0-1.76.715-1.76 2.144 0 .81.213 1.568.64 2.272.448.704 1.248 1.557 2.4 2.56 1.472 1.28 2.485 2.443 3.04 3.488.555 1.045.832 2.272.832 3.68 0 1.835-.459 3.243-1.376 4.224-.896.981-2.208 1.472-3.936 1.472z" fill="#fff"/><defs><linearGradient id="paint0_linear_1407_8" x1="16" y1="0" x2="44" y2="19" gradientUnits="userSpaceOnUse"><stop offset=".016" stop-color="#ED0233"/><stop offset=".943" stop-color="#003EB7"/></linearGradient></defs></svg>