<?xml version="1.0" encoding="UTF-8"?><!DOCTYPE svg PUBLIC "-//W3C//DTD SVG 1.1//EN" "http://www.w3.org/Graphics/SVG/1.1/DTD/svg11.dtd"><svg xmlns="http://www.w3.org/2000/svg" xmlns:xlink="http://www.w3.org/1999/xlink"><defs><linearGradient id="a" x1="14.435" y1="0" x2="77.223" y2="7.77" gradientUnits="userSpaceOnUse"><stop stop-color="#ED0233"/><stop offset="1" stop-color="#003EB7"/></linearGradient><linearGradient id="a" x1="19.774" y1="0" x2="105.785" y2="10.644" gradientUnits="userSpaceOnUse"><stop stop-color="#ED0233"/><stop offset="1" stop-color="#003EB7"/></linearGradient><linearGradient id="b" x1="14" y1="49.52" x2="54.186" y2="9.184" gradientUnits="userSpaceOnUse"><stop stop-color="#003D85"/><stop offset=".885" stop-color="#B80027"/></linearGradient><linearGradient id="a" x1="16" y1="0" x2="44" y2="19" gradientUnits="userSpaceOnUse"><stop offset=".016" stop-color="#ED0233"/><stop offset=".943" stop-color="#003EB7"/></linearGradient></defs><symbol id="arrow" viewBox="0 0 13 15"><g fill="none"><path d="M13 7.5.25 14.861V.14L13 7.5Z" fill="#fff"/></g></symbol><symbol id="facebook"><g fill="none"><path d="M11.548.005 8.67 0C5.436 0 3.347 2.318 3.347 5.906V8.63H.453c-.25 0-.453.219-.453.49v3.945c0 .27.203.49.453.49h2.894v9.956c0 .27.202.489.452.489h3.776c.25 0 .452-.22.452-.49v-9.956h3.384c.25 0 .453-.219.453-.489l.001-3.946a.51.51 0 0 0-.132-.346.436.436 0 0 0-.32-.143H8.026V6.32c0-1.11.245-1.673 1.582-1.673h1.939c.25 0 .452-.22.452-.49V.494c0-.27-.202-.489-.452-.489Z" fill="#fff"/></g></symbol><symbol id="instagram"><g fill="none"><path d="M17.503 0H6.497A6.504 6.504 0 0 0 0 6.497v11.007A6.504 6.504 0 0 0 6.497 24h11.007A6.504 6.504 0 0 0 24 17.504V6.497A6.504 6.504 0 0 0 17.503 0ZM12 18.562A6.57 6.57 0 0 1 5.438 12 6.57 6.57 0 0 1 12 5.438 6.57 6.57 0 0 1 18.562 12 6.57 6.57 0 0 1 12 18.562Zm6.72-11.577c-1.07 0-1.94-.87-1.94-1.939 0-1.07.87-1.94 1.94-1.94 1.069 0 1.939.87 1.939 1.94 0 1.07-.87 1.94-1.94 1.94Z" fill="#fff"/><path d="M12 6.844A5.161 5.161 0 0 0 6.845 12 5.161 5.161 0 0 0 12 17.155 5.161 5.161 0 0 0 17.155 12 5.161 5.161 0 0 0 12 6.844ZM18.719 4.514a.533.533 0 1 0 .001 1.066.533.533 0 0 0-.001-1.066Z" fill="#fff"/></g></symbol><symbol id="logo" viewBox="0 0 87 20"><g fill="none"><path d="M.676 5.168c0-1.473.355-2.6 1.066-3.38C2.452.991 3.502.592 4.888.592c1.387 0 2.435.399 3.146 1.196.71.78 1.066 1.907 1.066 3.38v.572H6.396v-.754c0-1.196-.477-1.794-1.43-1.794s-1.43.598-1.43 1.794c0 .676.19 1.317.572 1.924.381.59.84 1.127 1.378 1.612.555.485 1.11.997 1.664 1.534.555.52 1.023 1.179 1.404 1.976.381.78.572 1.647.572 2.6 0 1.473-.364 2.609-1.092 3.406-.728.78-1.785 1.17-3.172 1.17-1.387 0-2.444-.39-3.172-1.17-.728-.797-1.092-1.933-1.092-3.406v-1.118h2.704v1.3c0 1.179.494 1.768 1.482 1.768s1.482-.59 1.482-1.768a3.43 3.43 0 0 0-.572-1.898 7.405 7.405 0 0 0-1.404-1.638c-.537-.485-1.083-.988-1.638-1.508-.555-.537-1.023-1.196-1.404-1.976C.867 6.997.676 6.121.676 5.168ZM11.155.8h2.86v14.04c0 1.179.494 1.768 1.482 1.768s1.482-.59 1.482-1.768V.8h2.704v13.858c0 1.473-.364 2.609-1.092 3.406-.728.78-1.786 1.17-3.172 1.17-1.387 0-2.444-.39-3.172-1.17-.728-.797-1.092-1.933-1.092-3.406V.8Zm15.221 0c2.843 0 4.264 1.5 4.264 4.498v2.366c0 2.999-1.421 4.498-4.264 4.498h-1.352V19h-2.86V.8h4.212Zm0 2.6h-1.352v6.162h1.352c.468 0 .815-.13 1.04-.39.243-.26.364-.702.364-1.326v-2.73c0-.624-.121-1.066-.364-1.326-.225-.26-.572-.39-1.04-.39Zm8.969 0v5.07h3.926v2.6h-3.926v5.33h4.94V19h-7.8V.8h7.8v2.6h-4.94ZM51.469 19h-2.912c-.173-.52-.26-1.265-.26-2.236v-2.86c0-.832-.147-1.421-.442-1.768-.295-.364-.771-.546-1.43-.546h-.988V19h-2.86V.8h4.316c1.473 0 2.548.347 3.224 1.04.676.676 1.014 1.725 1.014 3.146v1.43c0 1.872-.624 3.103-1.872 3.692 1.265.537 1.898 1.829 1.898 3.874v2.808c0 .988.104 1.725.312 2.21ZM46.815 3.4h-1.378v5.59h1.118c.572 0 .997-.147 1.274-.442.295-.295.442-.789.442-1.482V5.272c0-1.248-.485-1.872-1.456-1.872Zm11.033 8.06v-2.6h4.004v5.772c0 1.473-.364 2.609-1.092 3.406-.728.78-1.785 1.17-3.172 1.17-1.387 0-2.444-.39-3.172-1.17-.728-.797-1.092-1.933-1.092-3.406V5.168c0-1.473.364-2.6 1.092-3.38.728-.797 1.785-1.196 3.172-1.196 1.387 0 2.444.399 3.172 1.196.728.78 1.092 1.907 1.092 3.38v1.768h-2.704v-1.95c0-1.196-.494-1.794-1.482-1.794s-1.482.598-1.482 1.794v9.828c0 1.179.494 1.768 1.482 1.768s1.482-.59 1.482-1.768V11.46h-1.3ZM66.506 19v-6.032L62.892.8h2.99l2.184 8.294L70.25.8h2.73l-3.614 12.168V19h-2.86ZM78.609.8l2.106 12.922L82.665.8h3.978V19h-2.704V5.948L81.963 19h-2.704L77.127 6.13V19H74.63V.8h3.978Z" fill="#fff"/></g></symbol><symbol id="TEST" viewBox="0 0 73 73"><g fill="none"><circle cx="36.5" cy="36.5" r="35.5" stroke="url(#a)" stroke-opacity=".2" stroke-width="2"/></g></symbol><symbol id="video-button"><g fill="none"><circle cx="50" cy="50" r="49" stroke="url(#a)" stroke-opacity=".2" stroke-width="2"/><circle cx="50" cy="50" r="36" fill="url(#b)"/><path d="m59 49.5-12.75 7.361V42.14L59 49.5Z" fill="#fff"/></g></symbol><symbol id="vkontakte"><g fill="none"><path fill-rule="evenodd" clip-rule="evenodd" d="M20.655 8.266c.796.744 1.637 1.444 2.35 2.263.316.364.615.74.843 1.162.324.6.03 1.26-.532 1.297l-3.496-.002c-.902.072-1.621-.276-2.226-.866-.484-.472-.933-.974-1.398-1.462a3.27 3.27 0 0 0-.63-.535c-.476-.297-.89-.206-1.164.27-.277.485-.34 1.022-.368 1.562-.037.788-.286.995-1.113 1.031-1.767.08-3.445-.176-5.003-1.03-1.374-.752-2.44-1.814-3.366-3.016C2.746 6.598 1.364 4.026.122 1.38-.159.786.045.466.732.455 1.873.433 3.014.434 4.156.452c.464.007.77.261.95.68.617 1.453 1.372 2.835 2.32 4.115.252.341.51.682.876.922.405.266.714.178.905-.254.12-.274.174-.57.201-.863.09-1.01.102-2.019-.056-3.025C9.255 1.399 8.885.992 8.23.873c-.334-.06-.284-.18-.123-.362C8.388.196 8.653 0 9.18 0h3.951c.622.118.76.385.845.984l.004 4.201c-.007.232.12.92.557 1.074.35.11.58-.158.79-.37.946-.961 1.62-2.097 2.224-3.273.268-.517.498-1.054.721-1.591.165-.398.425-.594.893-.586l3.803.004c.113 0 .227.001.336.02.641.104.817.368.619.967-.312.94-.919 1.722-1.512 2.51-.634.84-1.313 1.65-1.941 2.495-.578.772-.532 1.16.185 1.831Z" fill="#fff"/></g></symbol><symbol id="32"><g fill="none"><path d="M0 0h32v32H0V0Z" fill="url(#a)"/><path d="M15.888 26.32c-1.707 0-2.997-.48-3.872-1.44-.875-.981-1.312-2.379-1.312-4.192v-1.28h3.328v1.536c0 1.45.608 2.176 1.824 2.176.597 0 1.045-.17 1.344-.512.32-.363.48-.939.48-1.728 0-.939-.213-1.76-.64-2.464-.427-.725-1.216-1.59-2.368-2.592-1.45-1.28-2.464-2.432-3.04-3.456-.576-1.045-.864-2.219-.864-3.52 0-1.77.448-3.136 1.344-4.096.896-.981 2.197-1.472 3.904-1.472 1.685 0 2.955.49 3.808 1.472.875.96 1.312 2.347 1.312 4.16v.928h-3.328V8.688c0-.768-.15-1.323-.448-1.664-.299-.363-.736-.544-1.312-.544-1.173 0-1.76.715-1.76 2.144 0 .81.213 1.568.64 2.272.448.704 1.248 1.557 2.4 2.56 1.472 1.28 2.485 2.443 3.04 3.488.555 1.045.832 2.272.832 3.68 0 1.835-.459 3.243-1.376 4.224-.896.981-2.208 1.472-3.936 1.472Z" fill="#fff"/></g></symbol></svg>